<?xml version="1.0" encoding="UTF-8"?>
<svg version="1.1" xmlns="http://www.w3.org/2000/svg" width="1024" height="1024">
<path d="M0 0 C337.92 0 675.84 0 1024 0 C1024 337.92 1024 675.84 1024 1024 C686.08 1024 348.16 1024 0 1024 C0 686.08 0 348.16 0 0 Z " fill="#0A0A0A" transform="translate(0,0)"/>
<path d="M0 0 C1.26575615 -0.01073296 1.26575615 -0.01073296 2.55708313 -0.02168274 C3.9410453 -0.02571609 3.9410453 -0.02571609 5.35296631 -0.02983093 C6.32727097 -0.03640213 7.30157562 -0.04297333 8.30540466 -0.04974365 C11.53447546 -0.06947789 14.76349974 -0.08113963 17.99261475 -0.09111023 C19.09541527 -0.09518576 20.19821579 -0.09926128 21.33443451 -0.10346031 C27.1715018 -0.12432167 33.00854558 -0.13862308 38.84564209 -0.147995 C44.87266542 -0.15905897 50.8993195 -0.1934589 56.92621231 -0.23316669 C61.56224247 -0.25931977 66.19818448 -0.2676857 70.83428192 -0.27127647 C73.05580895 -0.27614586 75.27733196 -0.28776979 77.49878693 -0.30631447 C80.61063342 -0.33067715 83.72152227 -0.32974581 86.83343506 -0.32279968 C87.74797958 -0.33560974 88.66252411 -0.3484198 89.6047821 -0.36161804 C95.53560716 -0.31345787 99.03361994 0.61144031 103.85198975 4.14717102 C108.95726297 10.14913345 111.39268839 17.76589668 113.64886475 25.19404602 C113.96857239 26.20888062 114.28828003 27.22371521 114.61767578 28.26930237 C115.62463728 31.4749312 116.61367449 34.68575056 117.60198975 37.89717102 C118.27917205 40.06551587 118.95754757 42.23348846 119.637146 44.40107727 C121.13002968 49.1668602 122.61144872 53.93603571 124.08239746 58.70863342 C124.97358794 61.53246823 125.91321337 64.33884012 126.85198975 67.14717102 C128.02928333 67.14806665 128.02928333 67.14806665 129.23036063 67.14898038 C175.72608289 67.184858 222.22174014 67.24147181 268.71740232 67.32509197 C274.29758354 67.33510968 279.87776506 67.34495377 285.45794678 67.35469055 C286.56888161 67.35663192 287.67981644 67.3585733 288.82441597 67.3605735 C306.82316924 67.39161231 324.82190975 67.4085794 342.82068475 67.42036524 C361.28289278 67.43276706 379.74503375 67.46024652 398.20719945 67.50178409 C409.60349229 67.52694725 420.99967394 67.54028624 432.39599495 67.53860059 C440.20609711 67.53857089 448.01608584 67.55315893 455.82614382 67.5793353 C460.33520133 67.59401337 464.84402623 67.60215679 469.35310364 67.59297371 C473.48003995 67.58471091 477.60650805 67.59477474 481.73337476 67.61950764 C483.22740476 67.62521007 484.72147887 67.62414681 486.21549578 67.61568347 C488.24499894 67.6051705 490.27458827 67.62159748 492.30404091 67.63936234 C493.43181029 67.64088122 494.55957967 67.6424001 495.72152388 67.64396501 C500.58110289 68.42511692 503.65591889 71.01575265 507.16448975 74.33467102 C509.73584738 78.62026708 510.31316146 83.29543573 509.51254272 88.24620056 C508.93478388 90.37176705 508.25917683 92.4327856 507.527771 94.51045227 C507.27079941 95.28662903 507.01382782 96.06280579 506.74906921 96.86250305 C505.9042685 99.40085131 505.03456873 101.9298882 504.16448975 104.45967102 C503.56027788 106.25948466 502.95776582 108.05986975 502.35687256 109.86079407 C501.12662482 113.53896371 499.88661864 117.2136032 498.63763428 120.88545227 C497.04132448 125.58054375 495.46922742 130.28320858 493.9105835 134.99092102 C491.99693462 140.76583061 490.07576555 146.53813019 488.1449585 152.30732727 C487.88908966 153.07194778 487.63322083 153.8365683 487.36959839 154.62435913 C486.82467037 156.25267844 486.27971703 157.88098929 485.73474121 159.5092926 C482.99206757 167.70507578 480.252516 175.90189836 477.51583862 184.09968567 C476.78376632 186.29154125 476.05108354 188.48319303 475.31777954 190.67463684 C471.5024989 202.07690903 467.72038649 213.48646319 464.08636475 224.94795227 C463.49970967 226.78942835 462.91304012 228.63089983 462.32635498 230.47236633 C461.24895638 233.85673181 460.18827581 237.2457044 459.13739014 240.63838196 C455.51481912 252.15357968 451.86197128 262.78532668 440.85198975 269.14717102 C438.03815877 270.08511468 436.34712533 270.27162493 433.43794727 270.27021885 C432.52977467 270.2722099 431.62160207 270.27420095 430.68590909 270.27625233 C429.68689201 270.27333949 428.68787492 270.27042665 427.65858459 270.26742554 C426.06827959 270.26870717 426.06827959 270.26870717 424.44584721 270.2700147 C420.87588887 270.27166824 417.305977 270.26615015 413.73602295 270.26069641 C411.18388876 270.26041449 408.6317545 270.26057238 406.07962036 270.26113892 C400.57609269 270.261367 395.07258012 270.25852158 389.56905556 270.25290108 C381.6118486 270.24478002 373.65464737 270.24217023 365.69743671 270.24091309 C352.78793226 270.23872352 339.87843413 270.23206602 326.96893311 270.22261047 C314.42726676 270.21343389 301.88560213 270.20635426 289.34393311 270.20210266 C288.57108942 270.20183994 287.79824574 270.20157721 287.00198255 270.20130653 C283.12492001 270.20000151 279.24785745 270.1987378 275.37079489 270.19749463 C243.19785526 270.18712499 211.02492338 270.16950926 178.85198975 270.14717102 C178.47429443 271.38338196 178.09659912 272.6195929 177.7074585 273.89326477 C175.70207597 279.90941236 172.94604624 285.52093935 170.16448975 291.20967102 C169.39781982 292.7942511 169.39781982 292.7942511 168.61566162 294.4108429 C167.36595101 296.99202089 166.11131853 299.57067572 164.85198975 302.14717102 C165.41505504 302.14603186 165.97812034 302.1448927 166.55824822 302.14371902 C199.91859675 302.07660737 233.27892838 302.02512277 266.63932927 301.99397503 C270.64356582 301.99022284 274.64780223 301.98633988 278.65203857 301.9823761 C279.44922117 301.98158917 280.24640376 301.98080224 281.0677434 301.97999146 C293.98127341 301.96693202 306.89476343 301.94327522 319.8082697 301.91571263 C333.05542672 301.88767339 346.30256277 301.8709979 359.54974824 301.86490554 C367.72617815 301.86078601 375.90249501 301.84776761 384.07889012 301.82342162 C390.34503701 301.80571225 396.61109743 301.80380166 402.87726593 301.80784798 C405.45042684 301.80702062 408.0235919 301.80102644 410.59672737 301.7895546 C414.10276574 301.77468639 417.60831557 301.77819705 421.11436462 301.78640747 C422.13868361 301.77766895 423.1630026 301.76893042 424.21836156 301.75992709 C430.76426377 301.80152147 434.24776609 302.68762646 439.10198975 307.27217102 C441.50011423 311.21194696 442.15833026 314.55206327 441.85198975 319.14717102 C440.59669835 323.83799676 438.92565585 326.37416541 434.96040821 329.22901821 C430.00344919 331.97151575 425.0669654 331.70515689 419.52354431 331.66183472 C418.38939144 331.66878025 417.25523857 331.67572577 416.08671743 331.68288177 C412.28976845 331.70116469 408.49344335 331.69088319 404.69647217 331.68061829 C401.97276779 331.68548298 399.24909382 331.69628397 396.52540588 331.70672607 C389.89681702 331.72835033 383.26839994 331.72824301 376.6397874 331.72010053 C371.25005354 331.71379541 365.8603697 331.71494226 360.47063637 331.7213726 C359.7029216 331.72227426 358.93520684 331.72317591 358.14422799 331.72410489 C356.58449002 331.72595614 355.02475207 331.7278187 353.46501414 331.72969245 C338.84310659 331.74626607 324.22129557 331.73755615 309.59939382 331.72070687 C296.23373315 331.70601714 282.86829742 331.72062878 269.50266572 331.74947704 C255.76820058 331.77889979 242.03383915 331.7898345 228.29934388 331.78029484 C226.74449275 331.77927232 225.18964159 331.77827771 223.63479042 331.77731133 C222.8698398 331.77683494 222.10488918 331.77635855 221.31675824 331.77586772 C215.93773204 331.77370701 210.55880439 331.78348958 205.17980003 331.79808235 C198.61817055 331.8156355 192.05682756 331.81544617 185.49520918 331.7927307 C182.14991499 331.78161365 178.80553842 331.78108725 175.46020126 331.7970314 C171.82678379 331.81297648 168.19473917 331.79799417 164.56138611 331.77536011 C163.51360573 331.78719584 162.46582536 331.79903156 161.38629407 331.81122595 C153.57959507 331.71267176 146.56872744 329.92524798 140.93923348 324.20284754 C135.94807737 318.08748505 133.00234652 311.06099351 133.33636475 303.10420227 C134.89193125 294.18326404 139.53250992 285.7359321 143.55990601 277.720047 C144.88368684 275.07718675 146.18353873 272.42277866 147.48400879 269.76838684 C148.46086532 267.80458638 149.47485441 265.86323883 150.4911499 263.91963196 C154.41614064 256.32439338 154.41614064 256.32439338 154.16448975 248.04170227 C153.41623524 246.06814959 152.64145034 244.10460479 151.85198975 242.14717102 C151.11777403 239.90548624 150.42677668 237.65248188 149.73504639 235.39733887 C148.27536647 230.65452475 146.74373992 225.93447821 145.22698975 221.20967102 C144.89128967 220.161492 144.5555896 219.11331299 144.2097168 218.03337097 C135.73442485 191.58493647 127.0196552 165.21482784 118.32583618 138.83764648 C118.062272 138.03798651 117.79870781 137.23832653 117.52715683 136.41443443 C117.0004959 134.81655955 116.47381602 133.21869091 115.94711685 131.62082863 C110.32092959 114.55121184 104.74285969 97.46620959 99.19854736 80.36982727 C97.49834243 75.1296006 95.78913984 69.89236721 94.07562256 64.65647888 C92.83774593 60.87347287 91.60203807 57.08976009 90.36651611 53.3059845 C89.77972112 51.51081215 89.19193342 49.71596395 88.60308838 47.92146301 C87.80058817 45.47542193 87.00165978 43.02824198 86.20355225 40.58076477 C85.96373627 39.85294296 85.72392029 39.12512115 85.47683716 38.37524414 C83.85198975 33.37503965 83.85198975 33.37503965 83.85198975 31.14717102 C82.76284271 31.15383286 81.67369568 31.16049469 80.55154419 31.1673584 C70.28157609 31.22820396 60.01164462 31.27316026 49.74153709 31.30260754 C44.46170914 31.31825567 39.18202684 31.33947857 33.90228271 31.37348938 C28.80593053 31.40611294 23.70971836 31.42403045 18.61326981 31.43180275 C16.67002789 31.43734085 14.72679353 31.44815544 12.7836113 31.46436119 C10.05932882 31.4861752 7.33562302 31.48913627 4.61126709 31.48774719 C3.40932709 31.50392593 3.40932709 31.50392593 2.18310547 31.52043152 C-2.66468091 31.49372869 -5.93518885 30.79931142 -10.14801025 28.14717102 C-14.73471282 23.18857366 -15.5001232 19.21673974 -15.4331665 12.65498352 C-14.90722524 8.02958229 -12.47376764 5.31223054 -9.08551025 2.33467102 C-6.03421397 0.46452168 -3.49882083 0.02039991 0 0 Z " fill="#FEFDFD" transform="translate(253.14801025390625,195.8528289794922)"/>
<path d="M0 0 C111.87 0 223.74 0 339 0 C337.79044732 4.83821073 336.61737181 9.39714362 335.05111694 14.0871582 C334.67051809 15.23170975 334.28991924 16.37626129 333.89778709 17.55549622 C333.483407 18.79144028 333.06902691 20.02738434 332.64208984 21.30078125 C332.19103533 22.65333123 331.74024568 24.00596957 331.28969765 25.35868835 C330.08871603 28.96208241 328.88414073 32.56426513 327.67878723 36.16619873 C326.54588726 39.55346008 325.41627271 42.9418134 324.28637695 46.33007812 C320.98586382 56.2211469 317.68011586 66.11046828 314.375 76 C306.99125 98.11 299.6075 120.22 292 143 C211.15 143 130.3 143 47 143 C31.1267704 96.51411333 31.1267704 96.51411333 26.01785278 80.27423096 C19.55295297 59.73424745 12.82265816 39.28801225 5.96337891 18.87670898 C5.63713028 17.90457962 5.31088165 16.93245026 4.9747467 15.93086243 C4.36612064 14.11840667 3.75605402 12.30643376 3.14427185 10.49504089 C2.87502396 9.69375259 2.60577606 8.89246429 2.32836914 8.06689453 C2.09461075 7.37387238 1.86085236 6.68085022 1.62001038 5.96682739 C1.00038843 4.00123219 0.49985268 1.9994107 0 0 Z " fill="#0B0B0B" transform="translate(389,293)"/>
<path d="M0 0 C9.50839143 7.27021487 14.92025194 15.51075582 18.6875 26.8125 C19.43599619 41.10589835 18.61864296 53.00458889 9.6875 64.8125 C1.38929831 73.81296746 -8.69513955 80.04293302 -21.07421875 81.1484375 C-35.07826248 81.28778122 -45.57429559 78.34626126 -56.3125 68.8125 C-65.95728119 58.8577731 -69.64130226 47.43067581 -69.45703125 33.828125 C-68.92941155 22.81941117 -64.13176512 12.63176512 -56.3125 4.8125 C-39.80087112 -8.59766013 -18.52134026 -12.15904781 0 0 Z " fill="#FCFCFC" transform="translate(473.3125,553.1875)"/>
<path d="M0 0 C10.95930036 7.17275366 17.20775382 16.16623021 21.31640625 28.4921875 C22.67475012 43.15105988 20.9102253 55.84712874 11.31640625 67.4921875 C3.27225353 76.03041486 -6.64750643 81.78117566 -18.48046875 82.828125 C-33.20307604 82.97360531 -43.88418575 78.89690276 -54.87109375 68.8671875 C-63.87022209 59.47288785 -67.25499596 47.32794593 -66.99609375 34.609375 C-65.78996804 22.57827105 -59.60095798 12.59590531 -51.0234375 4.34765625 C-36.26326429 -7.35698862 -16.40219986 -9.21579206 0 0 Z " fill="#FDFDFC" transform="translate(656.68359375,551.5078125)"/>
<path d="M0 0 C7.35303098 5.86817012 10.10759585 12.62249834 11.21176147 21.81298828 C11.63916494 26.97750477 11.5382057 32.15748814 11.515625 37.3359375 C11.51421005 38.56759644 11.5127951 39.79925537 11.51133728 41.0682373 C11.50576487 44.98041266 11.49321742 48.89252961 11.48046875 52.8046875 C11.47488357 55.466145 11.47088791 58.12760194 11.46679688 60.7890625 C11.45580446 67.29429315 11.43855886 73.79948044 11.41796875 80.3046875 C5.14796875 80.3046875 -1.12203125 80.3046875 -7.58203125 80.3046875 C-7.58203125 77.0046875 -7.58203125 73.7046875 -7.58203125 70.3046875 C-10.48156798 71.97411774 -13.14322986 73.74472124 -15.76953125 75.8046875 C-23.38357979 81.23626092 -32.44267158 82.36603249 -41.58203125 81.3046875 C-48.21226674 79.69683378 -54.00611677 77.43864033 -58.58203125 72.3046875 C-62.19635064 65.94847065 -63.70642129 59.5610603 -62.58203125 52.3046875 C-60.50965246 44.82450369 -56.16509281 38.94242077 -49.41015625 35.0546875 C-41.78974286 31.4809764 -33.88634497 30.04412971 -25.58203125 29.1796875 C-24.82664062 29.09332031 -24.07125 29.00695312 -23.29296875 28.91796875 C-18.36110895 28.38410764 -13.54213932 28.22577669 -8.58203125 28.3046875 C-9.66913179 19.88756427 -9.66913179 19.88756427 -14.58203125 13.3046875 C-21.8689737 9.63886369 -29.28598449 9.09642435 -37.08203125 11.2890625 C-43.30761577 13.42580973 -48.98069776 15.86750559 -54.58203125 19.3046875 C-55.24203125 19.3046875 -55.90203125 19.3046875 -56.58203125 19.3046875 C-56.58203125 14.0246875 -56.58203125 8.7446875 -56.58203125 3.3046875 C-54.43703125 2.1909375 -52.29203125 1.0771875 -50.08203125 -0.0703125 C-49.42396484 -0.41755371 -48.76589844 -0.76479492 -48.08789062 -1.12255859 C-33.92292655 -8.33404001 -13.46224464 -8.83905322 0 0 Z " fill="#FBFBFB" transform="translate(717.58203125,721.6953125)"/>
<path d="M0 0 C0 5.61 0 11.22 0 17 C-3.7558418 15.74805273 -6.71089252 14.71374807 -10.125 13 C-18.78771896 9.08497693 -30.08645384 7.16741002 -39.25 10.25 C-43.26473608 11.91426191 -46.02636143 14.05272285 -48 18 C-48.31279156 20.2339738 -48.31279156 20.2339738 -48.375 22.75 C-48.42398438 23.59046875 -48.47296875 24.4309375 -48.5234375 25.296875 C-47.78364555 29.11729312 -45.85260927 31.48841493 -43 34 C-40.50062901 35.37662872 -38.25072443 36.4683514 -35.625 37.5 C-34.92745605 37.79132812 -34.22991211 38.08265625 -33.51123047 38.3828125 C-30.02095466 39.82955895 -26.50279899 41.19554644 -22.96875 42.53125 C-11.07870376 47.04812238 -0.66067911 52.21789023 5.02734375 64.15625 C8.44901944 73.11252555 7.81021761 82.26228293 4 91 C-1.48135539 100.33491433 -8.80777771 105.70810212 -19 109 C-19.68578125 109.226875 -20.3715625 109.45375 -21.078125 109.6875 C-35.92199669 113.76673191 -53.41189463 111.00791606 -67.0625 104.25 C-68.361875 103.5075 -69.66125 102.765 -71 102 C-71 95.07 -71 88.14 -71 81 C-68.56625 82.258125 -66.1325 83.51625 -63.625 84.8125 C-54.19919596 89.52634687 -46.48531186 92.22249875 -35.875 92.4375 C-35.12234863 92.46005859 -34.36969727 92.48261719 -33.59423828 92.50585938 C-27.07050693 92.47725279 -21.76036849 90.69451477 -17.03515625 86.08203125 C-14.94234623 81.87271901 -15.24499253 77.54940398 -16 73 C-18.29778405 67.79362854 -22.37181847 65.60459993 -27.4375 63.4375 C-29.61874558 62.60835572 -31.80682755 61.79706153 -34 61 C-62.42600664 50.28875112 -62.42600664 50.28875112 -69 36.4375 C-71.41373242 28.51347055 -71.44970729 18.07140453 -68.0625 10.5 C-62.844645 1.76927924 -54.82840707 -3.72912448 -45.17114258 -6.53051758 C-29.96482871 -9.81869272 -13.73042457 -6.63637187 0 0 Z " fill="#FBFBFB" transform="translate(257,693)"/>
<path d="M0 0 C2 2 2 2 2.22705078 3.87939453 C2.21657715 4.62302246 2.20610352 5.36665039 2.1953125 6.1328125 C2.18886719 6.93847656 2.18242188 7.74414062 2.17578125 8.57421875 C2.15064453 9.83685547 2.15064453 9.83685547 2.125 11.125 C2.11597656 11.97449219 2.10695313 12.82398438 2.09765625 13.69921875 C2.07405647 15.79959884 2.03818483 17.89983444 2 20 C1.46632813 19.73783691 0.93265625 19.47567383 0.3828125 19.20556641 C-2.07432837 18.00409679 -4.53705029 16.81451349 -7 15.625 C-7.83917969 15.2125 -8.67835938 14.8 -9.54296875 14.375 C-21.09323406 8.82370969 -33.44667081 6.99572114 -46.109375 9.65234375 C-55.16432168 12.92843471 -61.72129505 19.49139662 -66 28 C-71.58273936 40.40349205 -71.49686043 54.24105076 -67 67 C-65.55651803 70.17084872 -63.90317972 73.08500321 -62 76 C-61.1646875 77.3303125 -61.1646875 77.3303125 -60.3125 78.6875 C-53.1136108 85.8863892 -44.08692932 89.40987719 -34 89.4375 C-21.13381318 89.40409579 -11.0142305 84.4688766 -0.44921875 77.57421875 C2 76 2 76 3 76 C4.67142857 92.9 4.67142857 92.9 0.8671875 97.6796875 C-2.02264004 99.49086075 -4.81602389 100.78587682 -8 102 C-9.19689453 102.59941406 -9.19689453 102.59941406 -10.41796875 103.2109375 C-24.07892938 110.02932847 -41.4930273 110.08565757 -55.7890625 105.3203125 C-70.71705392 99.18203866 -81.82779726 88.94794554 -88.28515625 74.03125 C-94.04604378 58.66888326 -94.7053078 39.48442107 -88.54296875 24.15625 C-80.75552735 8.22649646 -68.91717308 -3.17962212 -52 -9 C-33.82759649 -13.12518952 -15.61327714 -9.95381967 0 0 Z " fill="#FCFCFC" transform="translate(639,695)"/>
<path d="M0 0 C4.6314698 3.92668092 7.49202077 8.44869985 10.125 13.875 C10.4653125 14.54917969 10.805625 15.22335937 11.15625 15.91796875 C14.48451842 23.88424085 13.125 30.76152206 13.125 39.875 C-5.685 39.875 -24.495 39.875 -43.875 39.875 C-40.45427521 52.96185223 -40.45427521 52.96185223 -30.97265625 60.89453125 C-23.39035462 64.43858657 -14.36701222 63.60205535 -6.625 61.125 C-2.04169885 59.45834504 1.96956645 57.40439434 6.125 54.875 C6.785 54.875 7.445 54.875 8.125 54.875 C8.125 60.815 8.125 66.755 8.125 72.875 C-6.35279237 79.27216407 -21.25245479 82.88191742 -36.875 77.875 C-47.20505074 73.79133885 -54.89330908 68.55293489 -59.75 58.375 C-65.11221413 45.15903791 -65.75970639 31.45448375 -60.875 17.875 C-55.91230769 6.62975041 -48.54020386 -0.4314249 -37.2265625 -5.25390625 C-24.87530931 -9.82920436 -10.62770778 -7.53018491 0 0 Z " fill="#FCFCFC" transform="translate(521.875,723.125)"/>
<path d="M0 0 C7.26 0 14.52 0 22 0 C28.6 19.14 35.2 38.28 42 58 C43.62089405 55.56865892 44.5005452 53.90510121 45.43286133 51.22558594 C45.69686234 50.47339783 45.96086334 49.72120972 46.23286438 48.94622803 C46.51308945 48.13381653 46.79331451 47.32140503 47.08203125 46.484375 C47.5261158 45.21234222 47.5261158 45.21234222 47.97917175 43.91461182 C48.92757605 41.19443534 49.86998813 38.47222297 50.8125 35.75 C51.43518148 33.96341427 52.05822469 32.17695458 52.68164062 30.390625 C56.20167625 20.28634758 59.64137056 10.15905437 63 0 C69.6 0 76.2 0 83 0 C80.83582711 7.46811407 78.37194446 14.76630422 75.6875 22.0625 C75.23528076 23.29331299 74.78306152 24.52412598 74.31713867 25.79223633 C69.18882147 39.67344988 63.86304195 53.48060624 58.54343033 67.2893486 C57.82148993 69.16415406 57.10060339 71.03936523 56.37973022 72.9145813 C50.81432005 87.38108288 45.10256678 101.75111611 39 116 C32.07 116 25.14 116 18 116 C18.86834404 111.65827978 19.94948714 108.57660817 21.7578125 104.59765625 C22.30658807 103.36550075 22.85474648 102.13307023 23.40234375 100.90039062 C24.26273533 98.97740807 25.12757464 97.05686771 26.00341797 95.14086914 C26.85203883 93.27815351 27.68111604 91.40768506 28.5078125 89.53515625 C29.00941895 88.425354 29.51102539 87.31555176 30.02783203 86.17211914 C31.85996929 80.19397766 29.41223513 75.0355342 27.13256836 69.46582031 C26.83981522 68.73663895 26.54706207 68.00745758 26.24543762 67.25617981 C25.28242823 64.86122841 24.31106294 62.46975737 23.33984375 60.078125 C22.66803835 58.41022564 21.99686938 56.74206981 21.3263092 55.07366943 C19.56412681 50.69285764 17.79530894 46.31475974 16.0244751 41.93743896 C13.18517916 34.91755915 10.35320263 27.89474193 7.52652168 20.86977386 C6.5369415 18.41443883 5.54282861 15.96097347 4.54832458 13.50762939 C3.94472703 12.01068801 3.34128905 10.51368226 2.73803711 9.01660156 C2.459086 8.33191299 2.18013489 7.64722443 1.89273071 6.94178772 C0 2.22737195 0 2.22737195 0 0 Z " fill="#FCFCFC" transform="translate(330,718)"/>
<path d="M0 0 C5.61 0 11.22 0 17 0 C17 7.26 17 14.52 17 22 C24.26 22 31.52 22 39 22 C39 26.95 39 31.9 39 37 C32.07 37 25.14 37 18 37 C18.02807594 43.74588156 18.07109092 50.48819473 18.15258789 57.2331543 C18.17577142 59.52702717 18.19016441 61.82100655 18.19555664 64.11499023 C18.2048432 67.41457516 18.24582988 70.71248414 18.29296875 74.01171875 C18.2890361 75.03585373 18.28510345 76.05998871 18.28105164 77.11515808 C18.40177642 83.07963655 18.40177642 83.07963655 21.40380859 88.15405273 C24.11874074 90.08442719 25.17627979 90.59590262 28.4375 90.375 C29.15808594 90.34148437 29.87867188 90.30796875 30.62109375 90.2734375 C33.4276558 89.95084416 36.21339666 89.46443389 39 89 C39 93.95 39 98.9 39 104 C29.2219484 107.12897651 19.35115156 109.31012808 9.5625 105.0625 C3.74438256 101.68515378 0.087265 97.02582105 -1.67477417 90.50151062 C-2.84324322 83.96824353 -3.2690968 77.71200012 -3.1953125 71.08203125 C-3.1924826 70.09877365 -3.18965271 69.11551605 -3.18673706 68.10246277 C-3.17566891 65.00567714 -3.15059053 61.9091961 -3.125 58.8125 C-3.11495289 56.69466568 -3.10583009 54.57682676 -3.09765625 52.45898438 C-3.07577359 47.30587477 -3.04133839 42.15298876 -3 37 C-7.29 37 -11.58 37 -16 37 C-16.125 25.25 -16.125 25.25 -15 23 C-12.27734375 22.3671875 -12.27734375 22.3671875 -8.9375 21.875 C-6.978125 21.58625 -5.01875 21.2975 -3 21 C-2.01 14.07 -1.02 7.14 0 0 Z " fill="#F9F9F9" transform="translate(286,696)"/>
<path d="M0 0 C5.61 0 11.22 0 17 0 C17 7.26 17 14.52 17 22 C23.93 22 30.86 22 38 22 C38 26.95 38 31.9 38 37 C31.07 37 24.14 37 17 37 C17.09715179 43.13845904 17.20001903 49.27627705 17.31738281 55.41430664 C17.35556383 57.50051104 17.39043533 59.58677882 17.421875 61.6730957 C17.46776227 64.679429 17.52571733 67.68532999 17.5859375 70.69140625 C17.59748871 71.61772354 17.60903992 72.54404083 17.62094116 73.49842834 C17.73789632 78.68046642 18.1942831 83.12084292 20 88 C22.69159887 90.0726447 25.03901047 90.25187875 28.375 90.1875 C29.10460937 90.18105469 29.83421875 90.17460938 30.5859375 90.16796875 C33.41068788 89.97142463 36.20694687 89.46550886 39 89 C39 93.95 39 98.9 39 104 C26.90138036 107.41608084 17.99866308 109.1315468 6.609375 102.83203125 C0.70902084 98.68941733 -1.17095908 93.37627916 -2.60736084 86.5473938 C-3.31066133 81.98446814 -3.24375805 77.44673195 -3.1953125 72.83984375 C-3.1924826 71.80936417 -3.18965271 70.77888458 -3.18673706 69.71717834 C-3.17562863 66.45716257 -3.15054163 63.19743138 -3.125 59.9375 C-3.11495813 57.7141967 -3.1058344 55.49088906 -3.09765625 53.26757812 C-3.07571992 47.84494405 -3.0412552 42.42252011 -3 37 C-7.29 37 -11.58 37 -16 37 C-15.67 32.38 -15.34 27.76 -15 23 C-11.04 22.34 -7.08 21.68 -3 21 C-2.86722656 19.81921875 -2.73445312 18.6384375 -2.59765625 17.421875 C-2.4194102 15.86456738 -2.24101707 14.30727658 -2.0625 12.75 C-1.93198242 11.58404297 -1.93198242 11.58404297 -1.79882812 10.39453125 C-1.71181641 9.64042969 -1.62480469 8.88632812 -1.53515625 8.109375 C-1.456604 7.41811523 -1.37805176 6.72685547 -1.29711914 6.01464844 C-0.99787922 3.98561985 -0.49743469 1.98973875 0 0 Z " fill="#FCFCFC" transform="translate(814,696)"/>
<path d="M0 0 C6.6 0 13.2 0 20 0 C20 39.6 20 79.2 20 120 C13.4 120 6.8 120 0 120 C0 80.4 0 40.8 0 0 Z " fill="#FAFAF9" transform="translate(423,682)"/>
<path d="M0 0 C0.90105469 0.00902344 1.80210937 0.01804687 2.73046875 0.02734375 C3.41753906 0.03894531 4.10460937 0.05054688 4.8125 0.0625 C4.92502453 6.16382987 4.79928883 12.03212381 3.8125 18.0625 C2.22819037 19.64680963 0.44397326 19.21871183 -1.75 19.3125 C-7.10768449 19.81837579 -11.28760065 21.26478142 -15.1875 25.0625 C-19.80785118 31.36312723 -19.78866183 36.90415528 -19.796875 44.55859375 C-19.81341125 45.74727554 -19.82994751 46.93595734 -19.84698486 48.16065979 C-19.89539506 51.9404928 -19.91682151 55.71992363 -19.9375 59.5 C-19.96566533 62.06968161 -19.99559354 64.63934455 -20.02734375 67.20898438 C-20.10115297 73.49345648 -20.15077089 79.77770622 -20.1875 86.0625 C-27.1175 86.0625 -34.0475 86.0625 -41.1875 86.0625 C-41.1875 58.3425 -41.1875 30.6225 -41.1875 2.0625 C-35.2475 2.0625 -29.3075 2.0625 -23.1875 2.0625 C-22.6925 8.9925 -22.6925 8.9925 -22.1875 16.0625 C-21.3625 14.70125 -20.5375 13.34 -19.6875 11.9375 C-14.82456303 4.61421725 -8.99234294 -0.11678367 0 0 Z " fill="#F8F8F8" transform="translate(788.1875,715.9375)"/>
<path d="M0 0 C5.00330085 2.84163131 8.92457418 6.96122253 10.75 12.4375 C11.41517474 19.89618065 11.41431104 25.42299366 6.75 31.4375 C2.03869403 36.26497516 -2.36627472 38.4865167 -9.0625 38.875 C-15.34421209 38.73478321 -19.31410246 36.22398799 -23.78515625 31.98046875 C-27.60927438 27.75498545 -28.94115129 23.73180473 -29.6875 18.1875 C-29.00071994 12.30081378 -26.80020386 6.88725819 -22.46484375 2.72265625 C-15.75349186 -2.19330214 -7.70827764 -3.47540842 0 0 Z " fill="#0B0B0B" transform="translate(643.25,571.5625)"/>
<path d="M0 0 C5.0535037 2.24348371 8.87865904 4.77438929 11.52734375 9.71484375 C13.4816372 15.89356952 13.13465312 22.46233551 11.23828125 28.59765625 C7.67542745 33.30981772 3.18426044 37.75932787 -2.69921875 39.16015625 C-9.2110209 39.96315305 -14.33562067 39.03636999 -19.69921875 35.16015625 C-23.77304354 31.26345427 -26.46585213 28.02559224 -26.9375 22.234375 C-27.1862537 10.88335093 -27.1862537 10.88335093 -22.69921875 6.16015625 C-15.80278472 -0.40436384 -9.36147094 -2.91275869 0 0 Z " fill="#0B0B0B" transform="translate(455.69921875,570.83984375)"/>
<path d="M0 0 C0.41129246 8.4238789 -0.11856823 13.62817249 -4.8125 20.75 C-9.21272974 25.27595059 -14.26249984 26.79722221 -20.375 27.25 C-24.41924377 26.97108664 -26.62552589 26.22408521 -30 24 C-32.85942989 20.66399846 -33.66462289 17.47382654 -33.47265625 13.05859375 C-32.55539598 9.06358414 -30.14019181 6.51348686 -27 4 C-18.67846214 -0.58945422 -9.2222321 -0.13628914 0 0 Z " fill="#0C0C0C" transform="translate(709,761)"/>
<path d="M0 0 C4.69521458 2.00969412 7.23751769 4.69233257 9.90234375 8.9921875 C10.8125 11.3828125 10.8125 11.3828125 11.8125 19.3828125 C-0.7275 19.3828125 -13.2675 19.3828125 -26.1875 19.3828125 C-25.00249264 12.27276835 -22.90079031 7.89756937 -17.625 3.0078125 C-11.82610636 -0.8581166 -6.83619766 -1.92878434 0 0 Z " fill="#0A0A0A" transform="translate(505.1875,731.6171875)"/>
<path d="M0 0 C1 3 1 3 -1 9 C-121.78 8.505 -121.78 8.505 -245 8 C-245 7.67 -245 7.34 -245 7 C-165.14 7 -85.28 7 -3 7 C-2.67 5.02 -2.34 3.04 -2 1 C-1.34 0.67 -0.68 0.34 0 0 Z " fill="#141514" transform="translate(682,427)"/>
<path d="M0 0 C0.08107583 1.93681161 0.13922475 3.8745934 0.1875 5.8125 C0.23970703 7.43091797 0.23970703 7.43091797 0.29296875 9.08203125 C0 12 0 12 -1.18345642 13.65811157 C-3.65753174 15.48572148 -5.29660495 15.38060762 -8.35766602 15.38818359 C-9.99935509 15.40236832 -9.99935509 15.40236832 -11.67420959 15.4168396 C-13.44615944 15.40773056 -13.44615944 15.40773056 -15.25390625 15.3984375 C-17.07159767 15.40274277 -17.07159767 15.40274277 -18.92601013 15.40713501 C-21.48900825 15.40917771 -24.05202188 15.40363358 -26.61499023 15.39111328 C-30.55031974 15.37504972 -34.48462425 15.39096328 -38.41992188 15.41015625 C-40.90625228 15.40817413 -43.39258204 15.4043311 -45.87890625 15.3984375 C-47.65389244 15.40754654 -47.65389244 15.40754654 -49.46473694 15.4168396 C-50.55604416 15.40738312 -51.64735138 15.39792664 -52.77172852 15.38818359 C-54.2170974 15.38460342 -54.2170974 15.38460342 -55.69166565 15.38095093 C-56.83429115 15.19238022 -56.83429115 15.19238022 -58 15 C-58.66 14.01 -59.32 13.02 -60 12 C-41.19 12 -22.38 12 -3 12 C-3 8.37 -3 4.74 -3 1 C-1 0 -1 0 0 0 Z " fill="#292928" transform="translate(538,751)"/>
<path d="M0 0 C0.33 0 0.66 0 1 0 C1.19386492 2.64551056 1.38038267 5.29117783 1.5625 7.9375 C1.61857422 8.69224609 1.67464844 9.44699219 1.73242188 10.22460938 C1.86176157 12.14745958 1.93516912 14.07389548 2 16 C-2.97214463 20.97214463 -11.97709878 17.64885494 -19 18 C-19.33 31.53 -19.66 45.06 -20 59 C-20.33 59 -20.66 59 -21 59 C-21 44.48 -21 29.96 -21 15 C-14.07 15 -7.14 15 0 15 C0 10.05 0 5.1 0 0 Z " fill="#292928" transform="translate(852,718)"/>
<path d="M0 0 C0.33 0 0.66 0 1 0 C1 6.27 1 12.54 1 19 C6.83392689 18.92094256 6.83392689 18.92094256 12.66748047 18.81982422 C13.39338379 18.8148291 14.11928711 18.80983398 14.8671875 18.8046875 C15.61081543 18.79421387 16.35444336 18.78374023 17.12060547 18.77294922 C19 19 19 19 21 21 C21.14497985 23.58064129 21.18677545 26.04943884 21.125 28.625 C21.11597656 29.33140625 21.10695313 30.0378125 21.09765625 30.765625 C21.07407603 32.51056098 21.03820461 34.25532295 21 36 C20.67 36 20.34 36 20 36 C20 31.38 20 26.76 20 22 C12.74 22 5.48 22 -2 22 C-1.67 20.68 -1.34 19.36 -1 18 C-0.85966422 16.560265 -0.75583143 15.11662851 -0.68359375 13.671875 C-0.64169922 12.87265625 -0.59980469 12.0734375 -0.55664062 11.25 C-0.49766602 10.0125 -0.49766602 10.0125 -0.4375 8.75 C-0.39431641 7.90953125 -0.35113281 7.0690625 -0.30664062 6.203125 C-0.20091457 4.13559329 -0.09998705 2.06781719 0 0 Z " fill="#151515" transform="translate(833,696)"/>
<path d="M0 0 C4.62 0 9.24 0 14 0 C14 16.17 14 32.34 14 49 C13.67 49 13.34 49 13 49 C12.67 33.49 12.34 17.98 12 2 C8.04 2 4.08 2 0 2 C0 1.34 0 0.68 0 0 Z " fill="#010101" transform="translate(797,733)"/>
<path d="M0 0 C0.66 0.33 1.32 0.66 2 1 C1.43635247 4.38188516 0.52265312 6.95469377 -1 10 C-1.35613097 11.66194453 -1.69208308 13.328451 -2 15 C-2.33 15.66 -2.66 16.32 -3 17 C-3.66 17 -4.32 17 -5 17 C-4.67 17.99 -4.34 18.98 -4 20 C-4.66 20 -5.32 20 -6 20 C-5.80535156 20.56203125 -5.61070312 21.1240625 -5.41015625 21.703125 C-4.90604364 24.52615562 -5.45454461 26.07636135 -6.4375 28.75 C-6.72496094 29.54921875 -7.01242187 30.3484375 -7.30859375 31.171875 C-7.53675781 31.77515625 -7.76492188 32.3784375 -8 33 C-8.66 33 -9.32 33 -10 33 C-10 33.99 -10 34.98 -10 36 C-10.66 36 -11.32 36 -12 36 C-9.92075241 28.01862841 -7.50008387 20.19255747 -4.875 12.375 C-4.51535156 11.28832031 -4.15570312 10.20164062 -3.78515625 9.08203125 C-3.26888672 7.53708984 -3.26888672 7.53708984 -2.7421875 5.9609375 C-2.4313623 5.03071777 -2.12053711 4.10049805 -1.80029297 3.14208984 C-1 1 -1 1 0 0 Z " fill="#141414" transform="translate(732,375)"/>
<path d="M0 0 C1.34215465 4.02646395 0.27560797 5.86025815 -1.08984375 9.85546875 C-1.31321915 10.51710526 -1.53659454 11.17874176 -1.76673889 11.86042786 C-2.48192782 13.97241683 -3.20952113 16.07988957 -3.9375 18.1875 C-4.42465126 19.61886074 -4.91098948 21.05049847 -5.39648438 22.48242188 C-6.58823968 25.99154402 -7.79115601 29.49672272 -9 33 C-9.33 33 -9.66 33 -10 33 C-9.67 29.37 -9.34 25.74 -9 22 C-8.34 22 -7.68 22 -7 22 C-7.061875 21.175 -7.12375 20.35 -7.1875 19.5 C-6.99059375 15.82441668 -6.14891018 13.28578391 -4.75390625 9.9296875 C-3.98980198 7.9738973 -3.46803132 6.04479705 -3 4 C-2.34 4 -1.68 4 -1 4 C-0.67 2.68 -0.34 1.36 0 0 Z " fill="#0F100F" transform="translate(392,718)"/>
<path d="M0 0 C2.8203125 -0.29296875 2.8203125 -0.29296875 6.125 -0.1875 C7.76855469 -0.14689453 7.76855469 -0.14689453 9.4453125 -0.10546875 C10.28835938 -0.07066406 11.13140625 -0.03585937 12 0 C12 3.63 12 7.26 12 11 C11.01 11.33 10.02 11.66 9 12 C9 9.03 9 6.06 9 3 C5.37 3 1.74 3 -2 3 C-1.34 2.01 -0.68 1.02 0 0 Z " fill="#1A1A19" transform="translate(697,761)"/>
<path d="M0 0 C0.66 0 1.32 0 2 0 C3.28556666 3.80731355 4.56721183 7.61592191 5.84521484 11.42578125 C6.28065756 12.72204323 6.71717592 14.01794438 7.15478516 15.31347656 C7.78309327 17.17418041 8.40723259 19.03629031 9.03125 20.8984375 C9.40830078 22.01911621 9.78535156 23.13979492 10.17382812 24.29443359 C11 27 11 27 11 29 C10.34 29 9.68 29 9 29 C8.87882812 28.36191406 8.75765625 27.72382813 8.6328125 27.06640625 C8.46523438 26.24011719 8.29765625 25.41382813 8.125 24.5625 C7.88136719 23.32693359 7.88136719 23.32693359 7.6328125 22.06640625 C7.42398437 21.38449219 7.21515625 20.70257813 7 20 C6.34 19.67 5.68 19.34 5 19 C5 17.35 5 15.7 5 14 C4.34 14 3.68 14 3 14 C2 11 2 11 3 8 C2.34 8 1.68 8 1 8 C0.67 5.36 0.34 2.72 0 0 Z " fill="#121213" transform="translate(350,272)"/>
<path d="M0 0 C1.25433458 3.76300374 1.10695422 7.27210909 1.0625 11.1875 C1.05798828 11.93708984 1.05347656 12.68667969 1.04882812 13.45898438 C1.03706354 15.30602383 1.01912865 17.15302213 1 19 C0.34 19.33 -0.32 19.66 -1 20 C-2.40248912 17.19502177 -2.16979056 14.81498635 -2.1875 11.6875 C-2.20876953 9.99173828 -2.20876953 9.99173828 -2.23046875 8.26171875 C-2.00480137 5.06795157 -1.36342654 2.8723571 0 0 Z " fill="#161716" transform="translate(570,732)"/>
<path d="M0 0 C0.99 0.33 1.98 0.66 3 1 C4.08057382 3.4342597 4.9467814 5.72627767 5.75 8.25 C5.98332031 8.91902344 6.21664063 9.58804687 6.45703125 10.27734375 C7.74881455 14.21457549 8.26586928 17.01714301 7 21 C5.01600445 18.02400668 4.35492056 15.98682856 3.5 12.5625 C2.81288618 9.81777904 2.18542908 7.36622243 0.90625 4.83984375 C0 3 0 3 0 0 Z " fill="#111111" transform="translate(367,326)"/>
<path d="M0 0 C0.66 0 1.32 0 2 0 C3.7431824 3.33478373 5.14112606 6.34978575 6 10 C6.51246442 11.752469 7.03362512 13.50241346 7.5625 15.25 C7.83191406 16.14203125 8.10132813 17.0340625 8.37890625 17.953125 C8.58386719 18.62859375 8.78882813 19.3040625 9 20 C8.01 20 7.02 20 6 20 C4.99513105 17.04329782 3.99693976 14.08438423 3 11.125 C2.71382813 10.28324219 2.42765625 9.44148438 2.1328125 8.57421875 C1.86210937 7.76855469 1.59140625 6.96289062 1.3125 6.1328125 C1.06113281 5.38918457 0.80976563 4.64555664 0.55078125 3.87939453 C0 2 0 2 0 0 Z " fill="#151514" transform="translate(423,396)"/>
<path d="M0 0 C0.99 0.33 1.98 0.66 3 1 C4.04514074 3.49361748 4.90101416 5.86419436 5.6875 8.4375 C5.91244141 9.13166016 6.13738281 9.82582031 6.36914062 10.54101562 C8 15.66161664 8 15.66161664 8 18 C7.01 18 6.02 18 5 18 C4.80664062 17.28714844 4.61328125 16.57429688 4.4140625 15.83984375 C2.97587225 10.54986672 1.52147368 5.26663967 0 0 Z " fill="#141414" transform="translate(385,381)"/>
<path d="M0 0 C0.33 0 0.66 0 1 0 C1 2.64 1 5.28 1 8 C0.34 8 -0.32 8 -1 8 C-1.10957031 8.54527344 -1.21914063 9.09054687 -1.33203125 9.65234375 C-2.51009937 15.25535065 -4.087035 20.6054387 -6 26 C-6.66 26 -7.32 26 -8 26 C-5.74603165 17.185701 -2.9375631 8.60369272 0 0 Z " fill="#1B1B1B" transform="translate(750,318)"/>
<path d="M0 0 C0.66 0 1.32 0 2 0 C2.66 1.98 3.32 3.96 4 6 C4.66 6 5.32 6 6 6 C6.29296875 12.0546875 6.29296875 12.0546875 6 14 C5.01 14.66 4.02 15.32 3 16 C3 13.03 3 10.06 3 7 C2.01 7 1.02 7 0 7 C0 4.69 0 2.38 0 0 Z " fill="#1E1E1E" transform="translate(793,715)"/>
<path d="M0 0 C2.04650391 3.06975587 2.99704565 5.69084152 4.125 9.1875 C4.47820312 10.27417969 4.83140625 11.36085938 5.1953125 12.48046875 C5.46085937 13.31191406 5.72640625 14.14335938 6 15 C7.32 13.68 8.64 12.36 10 11 C9.01 14.3 8.02 17.6 7 21 C4.29646988 18.29646988 3.53245504 15.17811781 2.375 11.625 C2.03082031 10.61566406 2.03082031 10.61566406 1.6796875 9.5859375 C0.55368814 6.18112992 0 3.62604845 0 0 Z " fill="#040404" transform="translate(366,757)"/>
<path d="M0 0 C0.66 0 1.32 0 2 0 C4.86034565 5.33931188 6.73130765 10.07943568 8 16 C7.01 16 6.02 16 5 16 C3.35 10.72 1.7 5.44 0 0 Z " fill="#121212" transform="translate(390,296)"/>
<path d="M0 0 C0.70125 0.309375 1.4025 0.61875 2.125 0.9375 C2.125 1.5975 2.125 2.2575 2.125 2.9375 C-1.59099191 3.13836443 -2.64708445 3.0894437 -5.875 0.9375 C-8.19887947 0.54362212 -10.53293749 0.20263915 -12.875 -0.0625 C-8.40667189 -2.98409915 -4.76861291 -1.76231347 0 0 Z " fill="#101010" transform="translate(247.875,705.0625)"/>
<path d="M0 0 C0.66 0 1.32 0 2 0 C2.86343824 2.12124966 3.71550648 4.24713072 4.5625 6.375 C5.27599609 8.15003906 5.27599609 8.15003906 6.00390625 9.9609375 C7 13 7 13 6 15 C4 14 4 14 2.9296875 11.34765625 C2.40761719 9.72150391 2.40761719 9.72150391 1.875 8.0625 C1.52179688 6.98097656 1.16859375 5.89945313 0.8046875 4.78515625 C0 2 0 2 0 0 Z " fill="#121212" transform="translate(363,212)"/>
<path d="M0 0 C6.53095322 3.00423848 9.41185935 6.84890174 13 13 C12.01 13 11.02 13 10 13 C6 7.74285714 6 7.74285714 6 5 C5.21625 4.71125 4.4325 4.4225 3.625 4.125 C1 3 1 3 -1 1 C-0.67 0.67 -0.34 0.34 0 0 Z " fill="#131313" transform="translate(351,195)"/>
<path d="M0 0 C1.32 0 2.64 0 4 0 C4 3.63 4 7.26 4 11 C3.34 11 2.68 11 2 11 C2 8.03 2 5.06 2 2 C1.01 1.67 0.02 1.34 -1 1 C-0.67 0.67 -0.34 0.34 0 0 Z " fill="#141414" transform="translate(705,761)"/>
<path d="M0 0 C1.97000947 3.51787406 3.14115035 7.06360577 4 11 C3.01 12.485 3.01 12.485 2 14 C-1.62870159 4.58997722 -1.62870159 4.58997722 0 0 Z " fill="#131313" transform="translate(361,739)"/>
<path d="M0 0 C1.28497537 3.85492611 0.4052209 5.40346836 -0.9375 9.1875 C-1.31777344 10.27417969 -1.69804687 11.36085938 -2.08984375 12.48046875 C-2.39019531 13.31191406 -2.69054687 14.14335938 -3 15 C-3.33 15 -3.66 15 -4 15 C-3.67 11.37 -3.34 7.74 -3 4 C-2.34 4 -1.68 4 -1 4 C-0.67 2.68 -0.34 1.36 0 0 Z " fill="#171717" transform="translate(386,736)"/>
<path d="M0 0 C2.70931419 0.15481795 4.46584039 0.48172081 6.4453125 2.40234375 C7.67679642 3.89771708 8.8429837 5.4462924 10 7 C9.01 7.495 9.01 7.495 8 8 C5 6 5 6 4 3 C2.35 2.67 0.7 2.34 -1 2 C-0.67 1.34 -0.34 0.68 0 0 Z " fill="#101010" transform="translate(698,733)"/>
<path d="M0 0 C0.99 0.33 1.98 0.66 3 1 C3 1.66 3 2.32 3 3 C4.175625 3.4640625 4.175625 3.4640625 5.375 3.9375 C8 5 8 5 10 6 C10 6.66 10 7.32 10 8 C4.33846154 6.52307692 4.33846154 6.52307692 2.625 3.875 C2.315625 2.946875 2.315625 2.946875 2 2 C1.34 2 0.68 2 0 2 C0 1.34 0 0.68 0 0 Z " fill="#1B1B1B" transform="translate(815,794)"/>
<path d="M0 0 C0 0.33 0 0.66 0 1 C-0.61488281 1.13277344 -1.22976563 1.26554688 -1.86328125 1.40234375 C-3.07564453 1.66724609 -3.07564453 1.66724609 -4.3125 1.9375 C-5.51326172 2.19853516 -5.51326172 2.19853516 -6.73828125 2.46484375 C-9.145401 2.99886159 -9.145401 2.99886159 -12 4 C-11.1875 2.0625 -11.1875 2.0625 -10 0 C-6.30581799 -1.231394 -3.7943739 -0.64432764 0 0 Z " fill="#171717" transform="translate(493,716)"/>
<path d="M0 0 C3.59634744 3.49359465 6.83451967 7.11098131 10 11 C7.32543283 10.62207203 6.19388186 10.20233084 4.296875 8.22265625 C3.78640625 7.50980469 3.2759375 6.79695312 2.75 6.0625 C2.22921875 5.35222656 1.7084375 4.64195312 1.171875 3.91015625 C0 2 0 2 0 0 Z " fill="#1A1A1A" transform="translate(595,612)"/>
<path d="M0 0 C3.95820859 0.56545837 6.6659053 1.80902348 10 4 C8.68 4.33 7.36 4.66 6 5 C6 4.34 6 3.68 6 3 C3.69 2.67 1.38 2.34 -1 2 C-0.67 1.34 -0.34 0.68 0 0 Z " fill="#161616" transform="translate(226,755)"/>
<path d="M0 0 C0.99 0.66 1.98 1.32 3 2 C-2.94 2.495 -2.94 2.495 -9 3 C-9 2.34 -9 1.68 -9 1 C-5.98131566 -0.50934217 -3.32702771 -0.17510672 0 0 Z " fill="#181818" transform="translate(808,716)"/>
<path d="M0 0 C0.66 0 1.32 0 2 0 C1.75 3.375 1.75 3.375 1 7 C-0.98 7.99 -0.98 7.99 -3 9 C-2.01 6.03 -1.02 3.06 0 0 Z " fill="#101010" transform="translate(716,424)"/>
<path d="M0 0 C0.66 0.33 1.32 0.66 2 1 C1.01 3.64 0.02 6.28 -1 9 C-1.99 9 -2.98 9 -4 9 C-3.67 7.35 -3.34 5.7 -3 4 C-2.34 4 -1.68 4 -1 4 C-0.67 2.68 -0.34 1.36 0 0 Z " fill="#141414" transform="translate(550,718)"/>
<path d="M0 0 C-2.39509338 2.89932357 -4.31245243 3.50168276 -8 4 C-8 3.01 -8 2.02 -8 1 C-2.25 -1.125 -2.25 -1.125 0 0 Z " fill="#151515" transform="translate(467,631)"/>
<path d="M0 0 C0.66 0 1.32 0 2 0 C2 0.66 2 1.32 2 2 C2.66 2 3.32 2 4 2 C4.33 3.98 4.66 5.96 5 8 C4.01 8.495 4.01 8.495 3 9 C2.01 6.03 1.02 3.06 0 0 Z " fill="#181717" transform="translate(673,568)"/>
<path d="M0 0 C0.66 0.33 1.32 0.66 2 1 C1.67 2.65 1.34 4.3 1 6 C0.34 6 -0.32 6 -1 6 C-1 6.99 -1 7.98 -1 9 C-1.66 9 -2.32 9 -3 9 C-2.01 6.03 -1.02 3.06 0 0 Z " fill="#1A1A1A" transform="translate(723,402)"/>
<path d="M0 0 C0 0.99 0 1.98 0 3 C-2.64 3.99 -5.28 4.98 -8 6 C-8 5.34 -8 4.68 -8 4 C-7.34 4 -6.68 4 -6 4 C-6 3.34 -6 2.68 -6 2 C-5.38125 1.855625 -4.7625 1.71125 -4.125 1.5625 C-1.96741678 1.06847775 -1.96741678 1.06847775 0 0 Z " fill="#121212" transform="translate(523,779)"/>
<path d="M0 0 C0.66 0 1.32 0 2 0 C3.42258812 3.82320557 4.24042276 6.91281305 4 11 C1.54176828 7.31265242 0.98757384 4.30300029 0 0 Z " fill="#1B1B1B" transform="translate(352,719)"/>
<path d="M0 0 C-1.52708963 3.43595166 -3.59927045 6.11912454 -6 9 C-6.25 6.75 -6.25 6.75 -6 4 C-2.75675676 0 -2.75675676 0 0 0 Z " fill="#131313" transform="translate(415,560)"/>
<path d="M0 0 C1.41377341 2.63904371 2.37240135 5.07120629 3 8 C2.01 8 1.02 8 0 8 C-1.125 2.25 -1.125 2.25 0 0 Z " fill="#161616" transform="translate(377,351)"/>
<path d="M0 0 C0 0.66 0 1.32 0 2 C0.66 2 1.32 2 2 2 C1.67 2.66 1.34 3.32 1 4 C-3.455 3.01 -3.455 3.01 -8 2 C-4.77208445 -0.1519437 -3.71599191 -0.20086443 0 0 Z " fill="#1B1B1A" transform="translate(244,685)"/>
<path d="M0 0 C0.66 0.66 1.32 1.32 2 2 C1.625 4.125 1.625 4.125 1 6 C-0.32 6.33 -1.64 6.66 -3 7 C-1.125 1.125 -1.125 1.125 0 0 Z " fill="#111010" transform="translate(421,491)"/>
</svg>
